<svg width="550" height="380" viewBox="0 0 550 380" fill="none" xmlns="http://www.w3.org/2000/svg">
<path d="M363.018 168.697L348.114 161.34L347.886 178.66L362.979 171.697L363.018 168.697ZM408.982 172.303L423.886 179.66L424.114 162.34L409.021 169.303L408.982 172.303ZM361.479 171.677L410.481 172.322L410.521 169.323L361.519 168.678L361.479 171.677Z" fill="url(#paint0_linear_3016_15138)"/>
<path d="M187 171.5L202 178.66L202 161.34L187 168.5L187 171.5ZM140.993 168.5L125.993 161.34L125.993 178.66L140.993 171.5L140.993 168.5ZM188.5 168.5L139.493 168.5L139.493 171.5L188.5 171.5L188.5 168.5Z" fill="url(#paint1_linear_3016_15138)"/>
<circle cx="70" cy="170" r="61" fill="#222C50"/>
<circle cx="275" cy="170" r="78" fill="#EF7457"/>
<circle cx="480" cy="170" r="61" fill="#222C50"/>
<path d="M226.105 186V154.5H234.88L243.385 175.875H243.655L251.125 154.5H259.945V186H253.06V168.18H252.79L246.22 186H240.505L233.215 167.46H232.945V186H226.105ZM281.35 186.585C271.495 186.585 264.79 179.565 264.79 170.25C264.79 160.98 271.54 153.915 281.35 153.915C289.9 153.915 295.66 159.27 297.01 166.2H289.27C288.415 163.095 285.4 160.755 281.35 160.755C275.905 160.755 272.17 164.85 272.17 170.25C272.17 175.74 275.905 179.745 281.35 179.745C285.4 179.745 288.37 177.45 289.54 174.435H297.325C295.975 181.365 289.81 186.585 281.35 186.585ZM302.174 186V154.5H314.369C320.624 154.5 325.349 158.82 325.349 165.03C325.349 171.195 320.444 175.65 314.369 175.65H309.284V186H302.174ZM309.284 169.62H313.649C316.214 169.62 318.104 167.775 318.104 165.03C318.104 162.285 316.214 160.575 313.649 160.575H309.284V169.62Z" fill="white"/>
<path d="M155.38 282V268H159.28L163.06 277.5H163.18L166.5 268H170.42V282H167.36V274.08H167.24L164.32 282H161.78L158.54 273.76H158.42V282H155.38ZM229.074 282.26C224.694 282.26 221.714 279.14 221.714 275C221.714 270.88 224.714 267.74 229.074 267.74C232.874 267.74 235.434 270.12 236.034 273.2H232.594C232.214 271.82 230.874 270.78 229.074 270.78C226.654 270.78 224.994 272.6 224.994 275C224.994 277.44 226.654 279.22 229.074 279.22C230.874 279.22 232.194 278.2 232.714 276.86H236.174C235.574 279.94 232.834 282.26 229.074 282.26ZM309.071 282V268H314.491C317.271 268 319.371 269.92 319.371 272.68C319.371 275.42 317.191 277.4 314.491 277.4H312.231V282H309.071ZM312.231 274.72H314.171C315.311 274.72 316.151 273.9 316.151 272.68C316.151 271.46 315.311 270.7 314.171 270.7H312.231V274.72Z" fill="#EF7457"/>
<path d="M178.173 282.26C174.793 282.26 172.493 279.84 172.493 276.72C172.493 273.6 174.773 271.18 178.193 271.18C181.573 271.18 183.873 273.6 183.873 276.72C183.873 279.84 181.573 282.26 178.173 282.26ZM178.173 279.46C179.653 279.46 180.733 278.32 180.733 276.72C180.733 275.12 179.653 273.98 178.173 273.98C176.713 273.98 175.633 275.12 175.633 276.72C175.633 278.34 176.713 279.46 178.173 279.46ZM190.186 282.26C187.286 282.26 185.306 280.1 185.306 276.78C185.306 273.46 187.266 271.18 190.106 271.18C191.766 271.18 192.726 272.08 193.086 272.64H193.246V267H196.346V282H193.266V280.8H193.106C192.806 281.28 191.926 282.26 190.186 282.26ZM190.886 279.46C192.366 279.46 193.306 278.28 193.306 276.72C193.306 275.04 192.286 273.98 190.866 273.98C189.426 273.98 188.446 275.1 188.446 276.72C188.446 278.36 189.426 279.46 190.886 279.46ZM203.381 282.26C200.321 282.26 198.021 279.96 198.021 276.78C198.021 273.48 200.221 271.18 203.441 271.18C206.921 271.18 208.741 273.74 208.741 276.68V277.58H200.961C201.061 278.92 202.041 279.88 203.501 279.88C204.721 279.88 205.541 279.28 205.841 278.62H208.641C208.161 280.84 206.241 282.26 203.381 282.26ZM201.021 275.52H205.861C205.741 274.4 204.821 273.54 203.441 273.54C202.121 273.54 201.161 274.48 201.021 275.52ZM213.913 282C211.793 282 210.613 280.74 210.613 278.68V267H213.713V278.32C213.713 278.96 214.033 279.28 214.593 279.28H214.973V282H213.913ZM243.349 282.26C239.969 282.26 237.669 279.84 237.669 276.72C237.669 273.6 239.949 271.18 243.369 271.18C246.749 271.18 249.049 273.6 249.049 276.72C249.049 279.84 246.749 282.26 243.349 282.26ZM243.349 279.46C244.829 279.46 245.909 278.32 245.909 276.72C245.909 275.12 244.829 273.98 243.349 273.98C241.889 273.98 240.809 275.12 240.809 276.72C240.809 278.34 241.889 279.46 243.349 279.46ZM251.082 282V271.44H254.002V272.6H254.162C254.582 271.88 255.582 271.18 257.002 271.18C259.342 271.18 260.782 272.76 260.782 274.96V282H257.682V275.92C257.682 274.84 257.042 274.06 255.982 274.06C254.902 274.06 254.182 274.96 254.182 276.08V282H251.082ZM267.874 282C265.574 282 264.194 280.66 264.194 278.34V273.86H262.494V271.46H263.494C264.054 271.46 264.354 271.08 264.354 270.52V268.58H267.294V271.44H270.054V273.86H267.294V278.18C267.294 278.96 267.734 279.44 268.654 279.44H270.014V282H267.874ZM276.721 282.26C273.661 282.26 271.361 279.96 271.361 276.78C271.361 273.48 273.561 271.18 276.781 271.18C280.261 271.18 282.081 273.74 282.081 276.68V277.58H274.301C274.401 278.92 275.381 279.88 276.841 279.88C278.061 279.88 278.881 279.28 279.181 278.62H281.981C281.501 280.84 279.581 282.26 276.721 282.26ZM274.361 275.52H279.201C279.081 274.4 278.161 273.54 276.781 273.54C275.461 273.54 274.501 274.48 274.361 275.52ZM282.425 282L285.965 276.52L282.705 271.44H286.045L287.825 274.44H287.945L289.725 271.44H293.065L289.805 276.54L293.345 282H289.965L287.945 278.78H287.805L285.785 282H282.425ZM299.768 282C297.468 282 296.088 280.66 296.088 278.34V273.86H294.388V271.46H295.388C295.948 271.46 296.248 271.08 296.248 270.52V268.58H299.188V271.44H301.948V273.86H299.188V278.18C299.188 278.96 299.628 279.44 300.548 279.44H301.908V282H299.768ZM321.218 282V271.44H324.138V273.04H324.298C324.658 272.26 325.598 271.36 327.018 271.36H328.038V274.28H326.818C325.298 274.28 324.318 275.38 324.318 277.2V282H321.218ZM334.834 282.26C331.454 282.26 329.154 279.84 329.154 276.72C329.154 273.6 331.434 271.18 334.854 271.18C338.234 271.18 340.534 273.6 340.534 276.72C340.534 279.84 338.234 282.26 334.834 282.26ZM334.834 279.46C336.314 279.46 337.394 278.32 337.394 276.72C337.394 275.12 336.314 273.98 334.834 273.98C333.374 273.98 332.294 275.12 332.294 276.72C332.294 278.34 333.374 279.46 334.834 279.46ZM347.366 282C345.066 282 343.686 280.66 343.686 278.34V273.86H341.986V271.46H342.986C343.546 271.46 343.846 271.08 343.846 270.52V268.58H346.786V271.44H349.546V273.86H346.786V278.18C346.786 278.96 347.226 279.44 348.146 279.44H349.506V282H347.366ZM356.533 282.26C353.153 282.26 350.853 279.84 350.853 276.72C350.853 273.6 353.133 271.18 356.553 271.18C359.933 271.18 362.233 273.6 362.233 276.72C362.233 279.84 359.933 282.26 356.533 282.26ZM356.533 279.46C358.013 279.46 359.093 278.32 359.093 276.72C359.093 275.12 358.013 273.98 356.533 273.98C355.073 273.98 353.993 275.12 353.993 276.72C353.993 278.34 355.073 279.46 356.533 279.46ZM369.265 282.26C365.865 282.26 363.665 279.82 363.665 276.72C363.665 273.6 365.845 271.18 369.245 271.18C372.185 271.18 374.285 272.96 374.585 275.54H371.445C371.165 274.64 370.365 273.98 369.265 273.98C367.745 273.98 366.805 275.2 366.805 276.72C366.805 278.26 367.785 279.46 369.285 279.46C370.325 279.46 371.145 278.86 371.405 278.02H374.565C374.225 280.52 372.165 282.26 369.265 282.26ZM381.728 282.26C378.348 282.26 376.048 279.84 376.048 276.72C376.048 273.6 378.328 271.18 381.748 271.18C385.128 271.18 387.428 273.6 387.428 276.72C387.428 279.84 385.128 282.26 381.728 282.26ZM381.728 279.46C383.208 279.46 384.288 278.32 384.288 276.72C384.288 275.12 383.208 273.98 381.728 273.98C380.268 273.98 379.188 275.12 379.188 276.72C379.188 278.34 380.268 279.46 381.728 279.46ZM392.585 282C390.465 282 389.285 280.74 389.285 278.68V267H392.385V278.32C392.385 278.96 392.705 279.28 393.265 279.28H393.645V282H392.585Z" fill="#222C50"/>
<path d="M69.55 134C66.8531 134 64.6466 136.207 64.6466 138.903C64.6466 140.704 65.6413 142.27 67.0983 143.122V146.259H72.0017V143.122C73.4587 142.27 74.4534 140.704 74.4534 138.903C74.4534 136.207 72.2469 134 69.55 134ZM42.581 148.71V192.841H74.2308L73.2276 205.1L87.7943 192.841H96.519V148.71H42.581ZM35.9585 160.976C34.844 160.89 34 161.616 34 162.908V174.355C34 175.831 35.1033 177.307 36.4517 177.676L37.6776 178.045C39.026 178.414 40.1293 177.552 40.1293 176.199V164.754C40.1293 163.278 39.026 161.802 37.6776 161.433L36.4517 161.062C36.2832 161.016 36.1177 160.988 35.9585 160.976ZM103.141 160.976C102.982 160.988 102.817 161.016 102.648 161.062L101.422 161.433C100.074 161.802 98.9707 163.278 98.9707 164.754V176.199C98.9707 177.552 100.074 178.414 101.422 178.045L102.648 177.676C103.997 177.307 105.1 175.831 105.1 174.355V162.908C105.1 161.616 104.256 160.89 103.141 160.976ZM59.7431 162.195C61.8271 162.195 63.4207 163.911 63.4207 165.872C63.4207 167.956 61.8271 169.55 59.7431 169.55C57.6591 169.55 56.0655 167.834 56.0655 165.872C56.0655 163.911 57.6591 162.195 59.7431 162.195ZM79.3569 162.195C81.4409 162.195 83.0345 163.911 83.0345 165.872C83.0345 167.956 81.4409 169.55 79.3569 169.55C77.2729 169.55 75.6793 167.834 75.6793 165.872C75.6793 163.911 77.2729 162.195 79.3569 162.195ZM62.1948 175.679H76.9052C75.8019 178.499 72.9824 180.583 69.55 180.583C66.2402 180.583 63.2981 178.499 62.1948 175.679Z" fill="white"/>
<path d="M453.32 134V140.32H447V206.68H464.38V192.46H470.7V206.68H488.08V140.32H481.76V134H453.32ZM456.48 146.64H459.64V149.8H456.48V146.64ZM462.8 146.64H465.96V149.8H462.8V146.64ZM469.12 146.64H472.28V149.8H469.12V146.64ZM475.44 146.64H478.6V149.8H475.44V146.64ZM491.24 152.96V159.28H494.4V162.44H491.24V165.6H494.4V168.76H491.24V171.92H494.4V175.08H491.24V178.24H494.4V181.4H491.24V184.56H494.4V187.72H491.24V190.88H494.4V194.04H491.24V197.2H494.4V200.36H491.24V206.68H513.36V152.96H491.24ZM456.48 154.54H459.64V160.86H456.48V154.54ZM462.8 154.54H465.96V160.86H462.8V154.54ZM469.12 154.54H472.28V160.86H469.12V154.54ZM475.44 154.54H478.6V160.86H475.44V154.54ZM497.56 159.28H500.72V162.44H497.56V159.28ZM503.88 159.28H507.04V162.44H503.88V159.28ZM456.48 164.02H459.64V170.34H456.48V164.02ZM462.8 164.02H465.96V170.34H462.8V164.02ZM469.12 164.02H472.28V170.34H469.12V164.02ZM475.44 164.02H478.6V170.34H475.44V164.02ZM497.56 165.6H500.72V168.76H497.56V165.6ZM503.88 165.6H507.04V168.76H503.88V165.6ZM497.56 171.92H500.72V175.08H497.56V171.92ZM503.88 171.92H507.04V175.08H503.88V171.92ZM456.48 173.5H459.64V179.82H456.48V173.5ZM462.8 173.5H465.96V179.82H462.8V173.5ZM469.12 173.5H472.28V179.82H469.12V173.5ZM475.44 173.5H478.6V179.82H475.44V173.5ZM497.56 178.24H500.72V181.4H497.56V178.24ZM503.88 178.24H507.04V181.4H503.88V178.24ZM456.48 182.98H459.64V189.3H456.48V182.98ZM462.8 182.98H465.96V189.3H462.8V182.98ZM469.12 182.98H472.28V189.3H469.12V182.98ZM475.44 182.98H478.6V189.3H475.44V182.98ZM497.56 184.56H500.72V187.72H497.56V184.56ZM503.88 184.56H507.04V187.72H503.88V184.56ZM497.56 190.88H500.72V194.04H497.56V190.88ZM503.88 190.88H507.04V194.04H503.88V190.88ZM456.48 192.46H459.64V200.36H456.48V192.46ZM475.44 192.46H478.6V200.36H475.44V192.46ZM497.56 197.2H500.72V200.36H497.56V197.2ZM503.88 197.2H507.04V200.36H503.88V197.2Z" fill="white"/>
<defs>
<linearGradient id="paint0_linear_3016_15138" x1="347.993" y1="170.5" x2="423.993" y2="171.5" gradientUnits="userSpaceOnUse">
<stop stop-color="#EF7457"/>
<stop offset="1" stop-color="#222C50"/>
</linearGradient>
<linearGradient id="paint1_linear_3016_15138" x1="202" y1="169.5" x2="125.993" y2="169.5" gradientUnits="userSpaceOnUse">
<stop stop-color="#EF7457"/>
<stop offset="1" stop-color="#222C50"/>
</linearGradient>
</defs>
</svg>
